# Blender v2.81 (sub 16) OBJ File: 'edit_shelf_geom.blend'
# www.blender.org
mtllib shelves.mtl
o RoomFurniture_03.002_Cube.017
v 0.149071 0.297718 0.136108
v 0.149071 0.297718 0.394766
v 0.149071 0.297718 0.405184
v -0.152071 0.282623 0.405043
v -0.152071 0.282623 0.391773
v -0.152071 -0.287058 0.136252
v 0.149071 -0.302153 0.136108
v -0.152071 -0.287058 0.391773
v -0.152071 -0.287058 0.405043
v 0.149071 -0.302153 0.394766
v 0.149071 -0.302153 0.405184
v -0.152071 0.297718 0.405184
v -0.152071 0.297718 0.394766
v -0.152071 -0.302153 0.405184
v -0.152071 -0.302153 0.394766
v 0.130671 0.282623 0.405043
v 0.130671 0.282623 0.136252
v 0.130671 0.282623 0.391773
v 0.130671 -0.287058 0.405043
v 0.130671 -0.287058 0.136252
v 0.130671 -0.287058 0.391773
v 0.149071 0.297718 -0.403604
v 0.149071 0.297718 -0.134681
v 0.149071 0.297718 -0.124263
v -0.152071 0.282623 -0.390113
v -0.152071 0.282623 -0.137673
v -0.152071 -0.287058 -0.390113
v 0.149071 -0.302153 -0.403604
v -0.152071 -0.287058 -0.137673
v 0.149071 -0.302153 -0.134681
v 0.149071 -0.302153 -0.124263
v -0.152071 0.297718 -0.403604
v -0.152071 0.297718 -0.134681
v -0.152071 -0.302153 -0.124263
v -0.152071 -0.302153 -0.403604
v -0.152071 -0.302153 -0.134681
v 0.130671 0.282623 -0.124404
v 0.130671 0.282623 -0.390113
v 0.130671 0.282623 -0.137673
v 0.130671 -0.287058 -0.124404
v 0.130671 -0.287058 -0.390113
v 0.130671 -0.287058 -0.137673
v 0.149071 0.297718 0.126185
v -0.152071 0.282623 -0.124574
v -0.152071 0.282623 0.136462
v -0.152071 0.282623 0.123193
v -0.152071 -0.287058 -0.124574
v -0.152071 -0.287058 0.123193
v 0.149071 -0.302153 0.126185
v -0.152071 0.297718 0.136603
v -0.152071 0.297718 -0.124718
v -0.152071 0.297718 0.126185
v -0.152071 -0.302153 0.136603
v -0.152071 -0.302153 0.126185
v 0.130671 0.282623 0.123193
v 0.130671 -0.287058 0.123193
vt 0.005284 0.012208
vt 0.216663 0.115277
vt 0.005285 0.115277
vt 0.409331 0.326187
vt 0.226518 0.223316
vt 0.409331 0.223118
vt 0.226518 0.330338
vt 0.409331 0.330338
vt 0.368166 0.551977
vt 0.368166 0.349112
vt 0.379336 0.343736
vt 0.005284 0.008057
vt 0.216663 0.012208
vt 0.890662 0.218957
vt 0.894770 0.005340
vt 0.894770 0.218957
vt 0.418471 0.330338
vt 0.601284 0.326187
vt 0.601284 0.330338
vt 0.601284 0.223316
vt 0.418471 0.326187
vt 0.418471 0.223118
vt 0.889482 0.213582
vt 0.788868 0.218957
vt 0.788813 0.213582
vt 0.889482 0.010716
vt 0.788868 0.005340
vt 0.890662 0.005340
vt 0.987851 0.734110
vt 0.987795 0.525869
vt 0.987851 0.531245
vt 0.573340 0.780774
vt 0.472588 0.983640
vt 0.472588 0.780774
vt 0.781788 0.207936
vt 0.610145 0.005072
vt 0.781788 0.005072
vt 0.196523 0.349112
vt 0.196524 0.551977
vt 0.295224 0.791326
vt 0.194472 0.964786
vt 0.194472 0.791326
vt 0.002602 0.964787
vt 0.103271 0.791327
vt 0.103271 0.964787
vt 0.196523 0.781649
vt 0.379336 0.568034
vt 0.379336 0.781649
vt 0.005285 0.223180
vt 0.216663 0.330338
vt 0.005285 0.330339
vt 0.409331 0.115216
vt 0.226518 0.008057
vt 0.409331 0.008057
vt 0.226518 0.119367
vt 0.409331 0.119367
vt 0.005285 0.219028
vt 0.216663 0.223179
vt 0.880531 0.557353
vt 0.876602 0.343736
vt 0.880710 0.343736
vt 0.601284 0.119186
vt 0.418471 0.115216
vt 0.601284 0.115216
vt 0.601284 0.008057
vt 0.418471 0.008057
vt 0.775885 0.551977
vt 0.876602 0.557353
vt 0.770566 0.557353
vt 0.775885 0.349111
vt 0.875422 0.349111
vt 0.770566 0.343736
vt 0.987855 0.734110
vt 0.987921 0.525869
vt 0.987975 0.739486
vt 0.875422 0.551977
vt 0.686539 0.983640
vt 0.786076 0.780774
vt 0.786076 0.983640
vt 0.760375 0.567765
vt 0.932018 0.770630
vt 0.760375 0.770630
vt 0.187383 0.551977
vt 0.015740 0.349112
vt 0.187383 0.349112
vt 0.300231 0.964786
vt 0.399768 0.791326
vt 0.399768 0.964786
vt 0.985489 0.342732
vt 0.885952 0.516192
vt 0.885952 0.342732
vt 0.580150 0.567765
vt 0.751793 0.770631
vt 0.580150 0.770631
vt 0.005285 0.119231
vt 0.216663 0.219028
vt 0.409331 0.219165
vt 0.226518 0.219165
vt 0.216663 0.119231
vt 0.677366 0.994660
vt 0.681474 0.781043
vt 0.681474 0.994660
vt 0.601284 0.219165
vt 0.418471 0.119367
vt 0.418471 0.219165
vt 0.676186 0.989284
vt 0.578435 0.994660
vt 0.578492 0.989284
vt 0.676186 0.786418
vt 0.578615 0.781043
vt 0.677366 0.781043
vt 0.988064 0.349111
vt 0.988120 0.557353
vt 0.987981 0.551977
vt 0.791005 0.983640
vt 0.888632 0.780774
vt 0.888632 0.983640
vt 0.571568 0.770630
vt 0.399925 0.567765
vt 0.571568 0.567765
vt 0.388477 0.349112
vt 0.560119 0.551977
vt 0.388477 0.551977
vt 0.893515 0.953499
vt 0.991143 0.780039
vt 0.991210 0.953499
vt 0.997558 0.177797
vt 0.899930 0.004337
vt 0.997558 0.004337
vt 0.226518 0.326187
vt 0.196523 0.343736
vt 0.379336 0.557353
vt 0.196524 0.557353
vt 0.216663 0.008057
vt 0.788730 0.010716
vt 0.987795 0.739486
vt 0.573340 0.983640
vt 0.610145 0.207936
vt 0.295224 0.964786
vt 0.002519 0.791327
vt 0.196523 0.568034
vt 0.226518 0.115216
vt 0.987975 0.531245
vt 0.686539 0.780774
vt 0.932018 0.567765
vt 0.015740 0.551977
vt 0.300231 0.791326
vt 0.985489 0.516192
vt 0.751793 0.567765
vt 0.578492 0.786418
vt 0.988120 0.343736
vt 0.791005 0.780774
vt 0.399925 0.770630
vt 0.560119 0.349112
vt 0.893515 0.780039
vt 0.899863 0.177797
vn 1.0000 0.0000 0.0000
vn 0.0000 -1.0000 0.0000
vn -0.0077 -0.0000 1.0000
vn -1.0000 0.0000 0.0000
vn -0.0000 1.0000 0.0000
vn -0.0000 0.0000 -1.0000
vn -0.0000 0.0000 1.0000
vn 1.0000 -0.0000 -0.0001
vn -0.0006 -0.0000 1.0000
vn 1.0000 0.0000 0.0001
vn 0.0007 -0.0004 1.0000
vn 0.0000 0.0094 1.0000
vn 0.0000 -0.0094 1.0000
usemtl Material.002
s off
f 2/1/1 7/2/1 1/3/1
f 10/4/2 53/5/2 7/6/2
f 14/7/2 10/4/2 11/8/2
f 16/9/3 19/10/3 11/11/3
f 3/12/1 10/13/1 2/1/1
f 13/14/4 14/15/4 12/16/4
f 3/17/5 13/18/5 12/19/5
f 50/20/5 2/21/5 1/22/5
f 5/23/4 50/24/4 45/25/4
f 8/26/4 53/27/4 15/28/4
f 4/29/1 14/30/1 9/31/1
f 8/26/4 13/14/4 5/23/4
f 17/32/4 21/33/4 18/34/4
f 5/35/6 21/36/6 8/37/6
f 9/38/7 16/9/7 4/39/7
f 8/40/5 20/41/5 6/42/5
f 45/43/2 18/44/2 5/45/2
f 22/46/6 35/47/6 32/48/6
f 23/49/1 28/50/1 22/51/1
f 30/52/2 35/53/2 28/54/2
f 34/55/2 30/52/2 31/56/2
f 24/57/1 30/58/1 23/49/1
f 51/59/4 36/60/4 34/61/4
f 51/62/5 23/63/5 33/64/5
f 32/65/5 23/63/5 22/66/5
f 25/67/4 33/68/4 32/69/4
f 27/70/4 36/60/4 29/71/4
f 25/67/4 35/72/4 27/70/4
f 47/73/8 51/74/8 34/75/8
f 29/71/4 33/68/4 26/76/4
f 38/77/4 42/78/4 39/79/4
f 26/80/6 42/81/6 29/82/6
f 47/83/9 37/84/9 44/85/9
f 29/86/5 41/87/5 27/88/5
f 25/89/2 39/90/2 26/91/2
f 27/92/7 38/93/7 25/94/7
f 43/95/1 31/96/1 24/57/1
f 49/97/2 34/55/2 31/56/2
f 7/6/2 54/98/2 49/97/2
f 1/3/1 49/99/1 43/95/1
f 52/100/4 53/101/4 50/102/4
f 1/22/5 52/103/5 50/20/5
f 24/104/5 52/103/5 43/105/5
f 46/106/4 51/107/4 44/108/4
f 48/109/4 34/110/4 54/111/4
f 45/112/10 53/113/10 6/114/10
f 48/109/4 52/100/4 46/106/4
f 37/115/4 56/116/4 55/117/4
f 46/118/6 56/119/6 48/120/6
f 6/121/11 17/122/11 45/123/11
f 48/124/5 40/125/5 47/126/5
f 46/127/2 37/128/2 55/129/2
f 2/1/1 10/13/1 7/2/1
f 10/4/2 15/130/2 53/5/2
f 14/7/2 15/130/2 10/4/2
f 19/10/12 9/38/12 14/131/12
f 3/132/13 12/133/13 16/9/13
f 12/133/13 4/39/13 16/9/13
f 19/10/12 14/131/12 11/11/12
f 3/132/3 16/9/3 11/11/3
f 3/12/1 11/134/1 10/13/1
f 13/14/4 15/28/4 14/15/4
f 3/17/5 2/21/5 13/18/5
f 50/20/5 13/18/5 2/21/5
f 5/23/4 13/14/4 50/24/4
f 8/26/4 6/135/4 53/27/4
f 4/29/1 12/136/1 14/30/1
f 8/26/4 15/28/4 13/14/4
f 17/32/4 20/137/4 21/33/4
f 5/35/6 18/138/6 21/36/6
f 9/38/7 19/10/7 16/9/7
f 8/40/5 21/139/5 20/41/5
f 45/43/2 17/140/2 18/44/2
f 22/46/6 28/141/6 35/47/6
f 23/49/1 30/58/1 28/50/1
f 30/52/2 36/142/2 35/53/2
f 34/55/2 36/142/2 30/52/2
f 24/57/1 31/96/1 30/58/1
f 51/59/4 33/68/4 36/60/4
f 51/62/5 24/104/5 23/63/5
f 32/65/5 33/64/5 23/63/5
f 25/67/4 26/76/4 33/68/4
f 27/70/4 35/72/4 36/60/4
f 25/67/4 32/69/4 35/72/4
f 47/73/4 44/143/4 51/74/4
f 29/71/4 36/60/4 33/68/4
f 38/77/4 41/144/4 42/78/4
f 26/80/6 39/145/6 42/81/6
f 47/83/9 40/146/9 37/84/9
f 29/86/5 42/147/5 41/87/5
f 25/89/2 38/148/2 39/90/2
f 27/92/7 41/149/7 38/93/7
f 43/95/1 49/99/1 31/96/1
f 49/97/2 54/98/2 34/55/2
f 7/6/2 53/5/2 54/98/2
f 1/3/1 7/2/1 49/99/1
f 52/100/4 54/111/4 53/101/4
f 1/22/5 43/105/5 52/103/5
f 24/104/5 51/62/5 52/103/5
f 46/106/4 52/100/4 51/107/4
f 48/109/4 47/150/4 34/110/4
f 45/112/1 50/151/1 53/113/1
f 48/109/4 54/111/4 52/100/4
f 37/115/4 40/152/4 56/116/4
f 46/118/6 55/153/6 56/119/6
f 6/121/7 20/154/7 17/122/7
f 48/124/5 56/155/5 40/125/5
f 46/127/2 44/156/2 37/128/2
